<svg width="360" height="225" viewBox="0 0 360 225" fill="none" xmlns="http://www.w3.org/2000/svg">
<g clip-path="url(#clip0_7_204)">
<rect y="0.5" width="360" height="224" rx="16" fill="white"/>
<ellipse cx="180" cy="293.5" rx="424" ry="173" fill="#E9EBF4"/>
<path d="M54.0795 116.54V116.444C54.0795 106.895 61.4925 99.0717 71.629 99.0717C77.6074 99.0717 81.3375 100.702 84.7806 103.678L80.1404 109.293C77.6051 107.133 75.2156 105.885 71.3891 105.885C66.034 105.885 61.7771 110.636 61.7771 116.347V116.444C61.7771 122.587 65.9846 127.097 71.9159 127.097C74.6417 127.097 76.9842 126.424 78.8492 125.081V120.283H71.4362V113.902H85.973V128.489C82.5299 131.415 77.7956 133.816 71.6761 133.816C61.2503 133.816 54.0771 126.521 54.0771 116.54H54.0795Z" fill="#20368F"/>
<path d="M91.0436 120.524V120.427C91.0436 113.038 96.9726 107.039 104.959 107.039C112.946 107.039 118.779 112.894 118.779 120.33V120.427C118.779 127.816 112.85 133.816 104.863 133.816C96.8762 133.816 91.0436 127.96 91.0436 120.524ZM111.606 120.524V120.427C111.606 116.637 108.88 113.326 104.863 113.326C100.846 113.326 98.2167 116.493 98.2167 120.333V120.43C98.2167 124.22 100.943 127.531 104.959 127.531C108.976 127.531 111.606 124.364 111.606 120.524Z" fill="#20368F"/>
<path d="M132.598 106.463H122.413V99.6498H150.148V106.463H139.962V133.24H132.598V106.463Z" fill="#20368F"/>
<path d="M152.156 107.52H159.426V112.703C160.908 109.201 163.252 106.848 167.603 107.041V114.671H167.22C162.389 114.671 159.426 117.55 159.426 123.741V133.242H152.156V107.52Z" fill="#20368F"/>
<path d="M169.419 125.851V125.754C169.419 120.187 173.676 117.548 179.748 117.548C182.378 117.548 184.149 117.98 186.014 118.603V118.171C186.014 115.101 184.149 113.468 180.515 113.468C177.693 113.468 175.781 113.947 173.438 114.86L171.623 109.293C174.445 108.094 177.218 107.23 181.569 107.23C185.586 107.23 188.358 108.238 190.223 110.109C192.136 112.028 192.996 114.86 192.996 118.315V133.24H185.967V130.457C184.198 132.425 181.806 133.721 178.22 133.721C173.389 133.721 169.421 130.986 169.421 125.851H169.419ZM186.108 124.17V122.875C184.817 122.299 183.238 121.914 181.468 121.914C178.361 121.914 176.446 123.162 176.446 125.466V125.563C176.446 127.531 178.071 128.683 180.416 128.683C183.859 128.683 186.108 126.858 186.108 124.173V124.17Z" fill="#20368F"/>
<path d="M206.527 129.881V133.24H199.257V98.2102H206.527V111.214C208.295 108.766 210.687 107.039 214.511 107.039C220.489 107.039 226.179 111.742 226.179 120.33V120.427C226.179 129.018 220.584 133.719 214.511 133.719C210.638 133.719 208.246 131.944 206.527 129.879V129.881ZM218.911 120.427V120.33C218.911 116.059 216.042 113.229 212.646 113.229C209.25 113.229 206.43 116.061 206.43 120.33V120.427C206.43 124.699 209.252 127.528 212.646 127.528C216.04 127.528 218.911 124.746 218.911 120.427Z" fill="#20368F"/>
<path d="M230.007 125.851V125.754C230.007 120.187 234.264 117.548 240.337 117.548C242.966 117.548 244.737 117.98 246.602 118.603V118.171C246.602 115.101 244.737 113.468 241.103 113.468C238.281 113.468 236.369 113.947 234.027 114.86L232.211 109.293C235.033 108.094 237.806 107.23 242.157 107.23C246.174 107.23 248.947 108.238 250.812 110.109C252.724 112.028 253.585 114.86 253.585 118.315V133.24H246.555V130.457C244.786 132.425 242.395 133.721 238.808 133.721C233.977 133.721 230.01 130.986 230.01 125.851H230.007ZM246.696 124.17V122.875C245.405 122.299 243.827 121.914 242.056 121.914C238.949 121.914 237.035 123.162 237.035 125.466V125.563C237.035 127.531 238.66 128.683 241.005 128.683C244.448 128.683 246.696 126.858 246.696 124.173V124.17Z" fill="#20368F"/>
<path d="M279.636 118.247C279.194 119.025 278.693 119.686 278.131 120.227C277.569 120.769 276.943 121.222 276.259 121.588C276.334 122.032 276.377 122.459 276.386 122.87C276.393 123.283 276.398 123.71 276.398 124.151C276.398 125.799 276.257 127.311 275.977 128.685C275.694 130.058 275.288 131.319 274.756 132.463C274.225 133.608 273.573 134.651 272.806 135.588C272.037 136.527 271.167 137.384 270.193 138.163C269.326 138.788 268.491 139.291 267.684 139.673C266.877 140.053 266.019 140.383 265.106 140.657C264.194 140.931 263.183 141.183 262.073 141.412C260.962 141.641 259.669 141.917 258.194 142.236C257.722 142.342 257.277 142.46 256.861 142.59C256.445 142.72 256.066 142.842 255.732 142.956C255.398 143.071 255.123 143.173 254.911 143.265C254.697 143.34 254.561 143.378 254.5 143.378C254.377 143.378 254.271 143.364 254.18 143.333C254.088 143.303 254.043 143.227 254.043 143.104C254.043 142.968 254.21 142.807 254.547 142.623C254.881 142.425 255.367 142.127 256.007 141.729C258.38 140.461 260.483 139.206 262.315 137.962C264.147 136.718 265.744 135.524 267.106 134.379C268.467 133.235 269.613 132.152 270.539 131.13C271.468 130.108 272.216 129.171 272.788 128.326C273.357 127.479 273.768 126.738 274.02 126.105C274.269 125.473 274.396 124.973 274.396 124.607C274.396 124.333 274.347 124.054 274.248 123.771C274.149 123.488 273.987 123.188 273.757 122.867C272.95 123.051 272.235 123.188 271.612 123.28C270.988 123.372 270.424 123.417 269.923 123.417C269.147 123.417 268.463 123.302 267.87 123.073C267.277 122.844 266.776 122.539 266.365 122.157C265.953 121.775 265.645 121.345 265.44 120.864C265.236 120.382 265.132 119.891 265.132 119.386C265.132 119.143 265.163 118.785 265.224 118.31C265.285 117.838 265.36 117.326 265.452 116.776C265.527 116.226 265.607 115.665 265.692 115.094C265.777 114.52 265.847 113.999 265.908 113.524C265.984 112.837 266.129 112.245 266.341 111.749C266.553 111.254 266.821 110.846 267.141 110.525C267.461 110.204 267.825 109.968 268.237 109.814C268.648 109.661 269.088 109.585 269.561 109.585C270.32 109.585 270.986 109.741 271.558 110.055C272.127 110.369 272.642 110.834 273.098 111.452C273.554 112.07 273.978 112.844 274.366 113.777C274.754 114.709 275.144 115.785 275.542 117.005C276.485 117.173 277.301 117.357 277.995 117.555C278.686 117.753 279.239 117.982 279.648 118.242L279.636 118.247Z" fill="#FFC305"/>
<path d="M292.049 85.3694C291.927 85.7517 291.748 86.2119 291.513 86.7547C291.278 87.2975 291.031 87.8191 290.772 88.3241C290.513 88.8268 290.271 89.2563 290.043 89.6056C289.815 89.9572 289.648 90.1319 289.54 90.1319C289.373 90.1319 289.06 90.0257 288.604 89.8109C288.148 89.5985 287.649 89.3177 287.11 88.9755C286.569 88.6309 286.05 88.2344 285.546 87.786C285.045 87.3353 284.672 86.8656 284.429 86.3771C284.429 86.3323 284.467 86.193 284.544 85.9641C284.622 85.7352 284.719 85.4685 284.841 85.1617C284.977 84.8573 285.123 84.5198 285.274 84.154C285.426 83.7882 285.586 83.4365 285.753 83.1014C285.92 82.7663 286.085 82.4642 286.245 82.1975C286.405 81.9309 286.546 81.7373 286.666 81.6146C287.139 82.1031 287.616 82.5468 288.103 82.9433C288.59 83.3398 289.069 83.6985 289.54 84.0195C290.013 84.3404 290.459 84.6118 290.885 84.8313C291.311 85.0531 291.699 85.216 292.049 85.3245V85.3694Z" fill="#FFC305"/>
<path d="M265.537 120.078C265.734 119.62 265.986 119.181 266.289 118.761C266.593 118.341 266.931 117.97 267.305 117.649C267.677 117.329 268.07 117.074 268.481 116.882C268.893 116.691 269.295 116.597 269.69 116.597C270.132 116.597 270.647 116.628 271.242 116.689C271.835 116.75 272.383 116.781 272.884 116.781C274.648 116.781 276.546 116.403 278.578 115.648C280.608 114.893 282.757 113.682 285.024 112.019C284.295 110.721 283.717 109.354 283.291 107.919C282.865 106.484 282.651 104.936 282.651 103.272C282.651 102.387 282.778 101.533 283.028 100.707C283.279 99.8834 283.663 99.1353 284.18 98.4627C284.697 97.7901 285.346 97.2119 286.132 96.7234C286.915 96.2349 287.839 95.8691 288.905 95.6236C290.198 95.3333 291.372 95.1516 292.43 95.0737C293.486 94.9982 294.465 94.951 295.361 94.9369C296.259 94.9369 297.11 94.9321 297.917 94.9251C298.724 94.918 299.528 94.8307 300.335 94.6607C301.142 94.4932 301.974 94.2147 302.833 93.8253C303.691 93.4359 304.632 92.8601 305.65 92.0978L305.923 92.2347C305.681 93.1055 305.436 93.9173 305.194 94.6725C304.949 95.4277 304.688 96.1263 304.406 96.7682C304.124 97.4101 303.809 98.0001 303.458 98.5429C303.108 99.0857 302.713 99.5766 302.27 100.02L301.358 100.936C300.704 102.203 299.947 103.447 299.088 104.667C298.228 105.887 297.282 107.091 296.247 108.273C295.213 109.456 294.107 110.617 292.926 111.754C291.748 112.892 290.511 114.017 289.22 115.131C289.479 115.986 289.657 116.875 289.756 117.798C289.855 118.721 289.904 119.665 289.904 120.625C289.904 120.717 289.893 120.81 289.869 120.899C289.846 120.989 289.796 121.036 289.721 121.036C289.646 121.036 289.585 120.961 289.537 120.807C289.218 119.936 288.902 119.169 288.59 118.506C288.277 117.843 287.941 117.22 287.574 116.639H287.437C284.928 118.594 282.449 120.128 279.998 121.241C277.55 122.355 275.116 122.912 272.698 122.912C271.892 122.912 271.127 122.867 270.405 122.775C269.683 122.683 269.013 122.532 268.397 122.318C267.78 122.103 267.23 121.813 266.743 121.447C266.257 121.081 265.854 120.623 265.534 120.073L265.537 120.078ZM287.122 110.553C287.959 109.911 288.837 109.205 289.756 108.436C290.676 107.664 291.593 106.848 292.506 105.986C293.418 105.125 294.307 104.223 295.175 103.284C296.043 102.345 296.856 101.38 297.616 100.388L297.524 100.296C297.068 100.252 296.537 100.226 295.927 100.216C295.321 100.209 294.695 100.204 294.058 100.204C292.247 100.204 290.723 100.36 289.483 100.674C288.244 100.988 287.244 101.391 286.482 101.887C285.72 102.383 285.175 102.937 284.838 103.546C284.505 104.157 284.335 104.769 284.335 105.377C284.335 105.986 284.575 106.687 285.055 107.563C285.535 108.441 286.177 109.42 286.983 110.506L287.12 110.551L287.122 110.553Z" fill="#FFC305"/>
</g>
<defs>
<clipPath id="clip0_7_204">
<rect y="0.5" width="360" height="224" rx="16" fill="white"/>
</clipPath>
</defs>
</svg>
