<svg width="18" height="18" viewBox="0 0 18 18" fill="none" xmlns="http://www.w3.org/2000/svg">
  <path d="M9 18C6.5 18 4.375 17.125 2.625 15.375C0.875 13.625 0 11.5 0 9C0 6.5 0.875 4.375 2.625 2.625C4.375 0.875 6.5 0 9 0C9.23333 0 9.4625 0.00833333 9.6875 0.025C9.9125 0.0416667 10.1333 0.0666667 10.35 0.1C9.66667 0.583333 9.12083 1.2125 8.7125 1.9875C8.30417 2.7625 8.1 3.6 8.1 4.5C8.1 6 8.625 7.275 9.675 8.325C10.725 9.375 12 9.9 13.5 9.9C14.4167 9.9 15.2583 9.69583 16.025 9.2875C16.7917 8.87917 17.4167 8.33333 17.9 7.65C17.9333 7.86667 17.9583 8.0875 17.975 8.3125C17.9917 8.5375 18 8.76667 18 9C18 11.5 17.125 13.625 15.375 15.375C13.625 17.125 11.5 18 9 18ZM9 16C10.4667 16 11.7833 15.5958 12.95 14.7875C14.1167 13.9792 14.9667 12.925 15.5 11.625C15.1667 11.7083 14.8333 11.775 14.5 11.825C14.1667 11.875 13.8333 11.9 13.5 11.9C11.45 11.9 9.70417 11.1792 8.2625 9.7375C6.82083 8.29583 6.1 6.55 6.1 4.5C6.1 4.16667 6.125 3.83333 6.175 3.5C6.225 3.16667 6.29167 2.83333 6.375 2.5C5.075 3.03333 4.02083 3.88333 3.2125 5.05C2.40417 6.21667 2 7.53333 2 9C2 10.9333 2.68333 12.5833 4.05 13.95C5.41667 15.3167 7.06667 16 9 16Z" fill="black" fill-opacity="0.5"/>
  <path d="M15.5116 11.6297L15.5209 11.6069L15.497 11.6129C15.164 11.6961 14.8311 11.7627 14.4981 11.8126C14.1654 11.8625 13.8327 11.8875 13.5 11.8875C11.4533 11.8875 9.71065 11.168 8.27134 9.72866C6.83203 8.28935 6.1125 6.54671 6.1125 4.5C6.1125 4.16729 6.13745 3.83458 6.18736 3.50185C6.2373 3.16892 6.30389 2.83598 6.38713 2.50303L6.39312 2.47905L6.37026 2.48844C5.068 3.0227 4.01192 3.87425 3.20223 5.04288C2.39239 6.21171 1.9875 7.53088 1.9875 9C1.9875 10.9366 2.67215 12.5898 4.04116 13.9588C5.41017 15.3279 7.06335 16.0125 9 16.0125C10.4691 16.0125 11.7883 15.6076 12.9571 14.7978C14.1257 13.9881 14.9773 12.932 15.5116 11.6297ZM9 17.9875C6.50328 17.9875 4.38147 17.1138 2.63384 15.3662C0.88621 13.6185 0.0125 11.4967 0.0125 9C0.0125 6.50328 0.88621 4.38147 2.63384 2.63384C4.38147 0.88621 6.50328 0.0125 9 0.0125C9.23304 0.0125 9.46189 0.0208227 9.68658 0.0374658C9.90071 0.0533274 10.111 0.0767464 10.3176 0.107721C9.64434 0.589839 9.10562 1.21456 8.70144 1.98167C8.29214 2.75852 8.0875 3.59803 8.0875 4.5C8.0875 6.00328 8.61379 7.28147 9.66616 8.33384C10.7185 9.38621 11.9967 9.9125 13.5 9.9125C14.4186 9.9125 15.2623 9.70788 16.0309 9.29853C16.7898 8.89435 17.4103 8.35563 17.8923 7.68241C17.9233 7.88895 17.9467 8.09929 17.9625 8.31342C17.9792 8.53811 17.9875 8.76696 17.9875 9C17.9875 11.4967 17.1138 13.6185 15.3662 15.3662C13.6185 17.1138 11.4967 17.9875 9 17.9875Z" stroke="black" stroke-opacity="0.5" stroke-width="0.025"/>
</svg>