<svg width="22" height="22" viewBox="0 0 22 22" fill="none" xmlns="http://www.w3.org/2000/svg">
  <path d="M11 14C11.8333 14 12.5417 13.7083 13.125 13.125C13.7083 12.5417 14 11.8333 14 11C14 10.1667 13.7083 9.45833 13.125 8.875C12.5417 8.29167 11.8333 8 11 8C10.1667 8 9.45833 8.29167 8.875 8.875C8.29167 9.45833 8 10.1667 8 11C8 11.8333 8.29167 12.5417 8.875 13.125C9.45833 13.7083 10.1667 14 11 14ZM11 16C9.61667 16 8.4375 15.5125 7.4625 14.5375C6.4875 13.5625 6 12.3833 6 11C6 9.61667 6.4875 8.4375 7.4625 7.4625C8.4375 6.4875 9.61667 6 11 6C12.3833 6 13.5625 6.4875 14.5375 7.4625C15.5125 8.4375 16 9.61667 16 11C16 12.3833 15.5125 13.5625 14.5375 14.5375C13.5625 15.5125 12.3833 16 11 16ZM4 12H0V10H4V12ZM22 12H18V10H22V12ZM10 4V0H12V4H10ZM10 22V18H12V22H10ZM5.4 6.75L2.875 4.325L4.3 2.85L6.7 5.35L5.4 6.75ZM17.7 19.15L15.275 16.625L16.6 15.25L19.125 17.675L17.7 19.15ZM15.25 5.4L17.675 2.875L19.15 4.3L16.65 6.7L15.25 5.4ZM2.85 17.7L5.375 15.275L6.75 16.6L4.325 19.125L2.85 17.7Z" fill="white" fill-opacity="0.5"/>
  <path d="M11 14.0125C11.8366 14.0125 12.5481 13.7195 13.1338 13.1338C13.7195 12.5481 14.0125 11.8366 14.0125 11C14.0125 10.1634 13.7195 9.45187 13.1338 8.86616C12.5481 8.28046 11.8366 7.9875 11 7.9875C10.1634 7.9875 9.45187 8.28046 8.86616 8.86616C8.28046 9.45187 7.9875 10.1634 7.9875 11C7.9875 11.8366 8.28046 12.5481 8.86616 13.1338C9.45187 13.7195 10.1634 14.0125 11 14.0125ZM11 15.9875C9.61997 15.9875 8.44399 15.5013 7.47134 14.5287C6.49869 13.556 6.0125 12.38 6.0125 11C6.0125 9.61997 6.49869 8.44399 7.47134 7.47134C8.44399 6.49869 9.61997 6.0125 11 6.0125C12.38 6.0125 13.556 6.49869 14.5287 7.47134C15.5013 8.44399 15.9875 9.61997 15.9875 11C15.9875 12.38 15.5013 13.556 14.5287 14.5287C13.556 15.5013 12.38 15.9875 11 15.9875ZM3.9875 11.9875H0.0125V10.0125H3.9875V11.9875ZM21.9875 11.9875H18.0125V10.0125H21.9875V11.9875ZM10.0125 3.9875V0.0125H11.9875V3.9875H10.0125ZM10.0125 21.9875V18.0125H11.9875V21.9875H10.0125ZM6.68281 5.35014L5.39949 6.73218L2.8927 4.32467L4.29997 2.86802L6.68281 5.35014ZM15.2923 16.625L16.6003 15.2677L19.1073 17.6753L17.7 19.132L15.2923 16.625ZM16.6499 6.68281L15.2678 5.39949L17.6753 2.8927L19.132 4.29997L16.6499 6.68281ZM5.37499 15.2923L6.73234 16.6003L4.32467 19.1073L2.86802 17.7L5.37499 15.2923Z" stroke="white" stroke-opacity="0.5" stroke-width="0.025"/>
</svg>